<?xml version="1.0" encoding="UTF-8" standalone="no"?>
<svg
   width="2.1155469in"
   height="1.7997062in"
   viewBox="0 0 634.6632 539.91021"
   version="1.1"
   id="svg1"
   sodipodi:docname="linked_in.svg"
   inkscape:version="1.3.2 (091e20e, 2023-11-25)"
   xmlns:inkscape="http://www.inkscape.org/namespaces/inkscape"
   xmlns:sodipodi="http://sodipodi.sourceforge.net/DTD/sodipodi-0.dtd"
   xmlns="http://www.w3.org/2000/svg"
   xmlns:svg="http://www.w3.org/2000/svg">
  <defs
     id="defs1" />
  <sodipodi:namedview
     id="namedview1"
     pagecolor="#ffffff"
     bordercolor="#000000"
     borderopacity="0.25"
     inkscape:showpageshadow="2"
     inkscape:pageopacity="0.0"
     inkscape:pagecheckerboard="true"
     inkscape:deskcolor="#d1d1d1"
     inkscape:document-units="in"
     inkscape:zoom="2.6311271"
     inkscape:cx="98.816965"
     inkscape:cy="80.383801"
     inkscape:window-width="1392"
     inkscape:window-height="946"
     inkscape:window-x="0"
     inkscape:window-y="25"
     inkscape:window-maximized="0"
     inkscape:current-layer="svg1" />
  <path
     id="Selection"
     fill="none"
     stroke="black"
     stroke-width="1"
     d="m 32.11451,-4.3812623e-4 c 0,0 45,0 45,0 0,0 85,0 85,0 0,0 261,0 261,0 0,0 74,0 74,0 25.5,-0.0500000038 39.96,18.48000012623 40,42.91000012623 0,0 0,378.999998 0,378.999998 0,0 0,73 0,73 -0.28,23.49 -16.1,40.96 -40,41 0,0 -382,0 -382,0 0,0 -75,0 -75,0 -25.44,-0.04 -39.95999956,-18.61 -39.99999956,-43 0,0 0,-374 0,-374 0,0 0,-57.999998 0,-57.999998 0,-9.62 -0.79,-24.09 1.77999996,-33 4.2,-14.56 15.6699996,-24.3000001 30.2199996,-27.91000012623 z m 80,75.21000012623 c -6.49,1.22 -11.42,3.21 -17,6.79 -23.83,15.29 -27.36,49.519998 -7.83,69.819998 7.94,8.25 19.53,12.9 30.83,13.77 3.54,0.27 11.51,-1.09 15,-2.12 38.29,-11.28 43.93,-64.009998 9,-83.249998 -9.88,-5.44 -18.96,-6.11 -30,-5.01 z m 344,380.699998 c 0,0 0,-84 0,-84 0,0 1,-13 1,-13 0,0 0,-37 0,-37 0,0 -0.96,-12 -0.96,-12 0,0 0,-15 0,-15 0,0 -1.91,-19 -1.91,-19 -5.01,-36.09 -18.63,-65.15 -56.13,-76.28 -8.03,-2.39 -23.63,-4.62 -32,-4.72 -25.29,-0.29 -43.36,4.79 -63,21.44 -6.43,5.45 -13.25,16.9 -18,19.56 0,0 0,-34 0,-34 0,0 -75,0 -75,0 0,0 0,254 0,254 0,0 78,0 78,0 0,0 0,-128 0,-128 0,0 0.91,-12 0.91,-12 1.56,-21.27 7.83,-43.44 31.09,-49.84 4.62,-1.27 9.2,-2.1 14,-2.16 6.06,-0.07 11.17,0.08 17,2.1 21.49,7.44 26.97,31.6 27,51.9 0,0 0,138 0,138 z m -297,-254 c 0,0 -78,0 -78,0 0,0 0,254 0,254 0,0 78,0 78,0 z m 431,264.46 c 7.34,-1.01 15.04,-0.75 22,2 23.7,9.38 29.68,40.67 13.33,59.37 -7.34,8.4 -18.36,12.41 -29.33,12.16 -32.8,-0.76 -47.63,-41.21 -24.91,-63.9 5.36,-5.35 11.65,-8.01 18.91,-9.63 z m 3,4.84 c -6.26,1.18 -11.02,2.83 -15.99,7.03 -22.14,18.74 -9.86,54.3 18.99,56.49 4.11,0.31 10.22,-1.07 14,-2.7 25.41,-10.91 25.68,-47.97 0,-58.64 -5.67,-2.36 -10.96,-2.78 -17,-2.18 z m -9,11.7 c 6.44,0 20.97,-1.38 25.77,2.65 4.5,3.77 6.54,18.28 -6.77,19.35 3.86,5 9.1,12.03 11,18 -2.18,-0.03 -4.74,0.14 -6.68,-1.02 -7.66,-4.6 -5.09,-15.55 -17.32,-15.98 0,0 0,17 0,17 0,0 -6,0 -6,0 z m 6,17 c 3.39,0 11.07,0.49 13.77,-1.17 3.86,-2.38 3.31,-7.22 -0.88,-9.52 -3.12,-1.71 -9.27,-1.31 -12.89,-1.31 z"
     style="fill:#ffffff;fill-opacity:1;stroke:none" />
</svg>
